HIERARCHY
ROOT Hips
{
  OFFSET 0.0 0.0 0.0
  CHANNELS 6 XPOSITION YPOSITION ZPOSITION ZROTATION XROTATION YROTATION 
  JOINT LeftUpLeg
  {
    OFFSET 0.089458 -0.0866707 0.00101652
    CHANNELS 3 ZROTATION XROTATION YROTATION 
    JOINT LeftLeg
    {
      OFFSET 0.0 -0.444227 0.013727
      CHANNELS 3 ZROTATION XROTATION YROTATION 
      JOINT LeftFoot
      {
        OFFSET -0.00253549 -0.420924 -0.0146059
        CHANNELS 3 ZROTATION XROTATION YROTATION 
        End Site
        {
          OFFSET -0.0004 -0.0441509 0.084991
        }
      }
    }
  }
  JOINT Spine
  {
    OFFSET 0.0 0.118905 0.0
    CHANNELS 3 ZROTATION XROTATION YROTATION 
    JOINT Spine1
    {
      OFFSET 0.0 0.256574 0.00127663
      CHANNELS 3 ZROTATION XROTATION YROTATION 
      End Site
      {
        OFFSET -0.0029 0.2150836 0.02525291
      }
      JOINT RightArm
      {
        OFFSET -0.162727 -0.05365632 0.00102123
        CHANNELS 3 ZROTATION XROTATION YROTATION 
        JOINT RightForeArm
        {
          OFFSET -0.26364 0.00099144 -0.0142434
          CHANNELS 3 ZROTATION XROTATION YROTATION 
          End Site
          {
            OFFSET -0.220324 0.00085362 0.0102216
          }
        }
      }
      JOINT LeftArm
      {
        OFFSET 0.162727 -0.0536563199 0.00102123
        CHANNELS 3 ZROTATION XROTATION YROTATION 
        JOINT LeftForeArm
        {
          OFFSET 0.262597 0.00099144 -0.0142434
          CHANNELS 3 ZROTATION XROTATION YROTATION 
          End Site
          {
            OFFSET 0.220902 0.00085362 0.0102216
          }
        }
      }
    }
  }
  JOINT RightUpLeg
  {
    OFFSET -0.089458 -0.0866707 0.00101652
    CHANNELS 3 ZROTATION XROTATION YROTATION 
    JOINT RightLeg
    {
      OFFSET 0.0 -0.444227 0.013727
      CHANNELS 3 ZROTATION XROTATION YROTATION 
      JOINT RightFoot
      {
        OFFSET 0.00253549 -0.420924 -0.0146059
        CHANNELS 3 ZROTATION XROTATION YROTATION 
        End Site
        {
          OFFSET 0.0004 -0.0441509 0.084991
        }
      }
    }
  }
}
MOTION
Frames: 11
Frame Time: 0.033333
-23.4042686733 0.92266404267 5.33440980024 -0.936433876248 1.22131914554 -93.9072600305 -3.22457755717 -24.4562675497 1.62872861703 5.31381118842 41.6504833135 19.9362139891 -11.6495791861 -37.8987526099 -1.18138761849 1.16531159434 16.8761287315 3.29190934856 -9.10037414917 0.132890228225 4.76573418441 81.4989441578 -17.7300867928 26.6162841389 8.73815299578 40.5355437239 5.91685968929 -70.5610997115 -11.4287660004 11.6916172929 -4.24238801473 38.0907287369 -12.3376447591 -6.51015681447 -4.72729473354 -4.8001139416 -16.746329524 67.1116765957 9.85068835874 3.16290628505 -29.9263816409 -6.51635136916 
-23.4549239709 0.937212734068 5.34897712309 -0.735011010654 0.783727601714 -94.3001598323 -4.9607689555 -19.051521784 1.81795196435 5.20672022553 37.4266157835 19.8043742626 -10.659437398 -39.9342958317 -0.355044572239 1.16199585767 17.7055151873 2.47728784074 -7.94243424993 -0.497546997719 3.74166215092 81.2928090487 -20.1712954399 20.6750167686 9.99165151038 45.3745722414 0.78776216244 -72.8041611557 -6.35232992577 7.80321535785 -0.326816254172 32.1577190653 -20.8212767319 -5.99482416423 -11.9054816149 -5.53252110272 -19.3709014296 70.3234091284 10.1918622842 2.18206913556 -32.352102834 -6.98025312183 
-23.5057899927 0.947149235723 5.36202035548 -0.545922132681 0.259117686956 -94.5281447166 -6.47474740627 -13.3380881801 2.69015623575 4.90713190684 32.3014706417 19.1955636434 -9.03945313064 -41.3867799549 0.40352730936 1.10315068304 18.3171671652 1.76956498328 -6.46625705424 -1.08130325576 2.78659487829 79.6701131962 -22.2476661174 13.1517230535 10.2233323808 46.741026717 -1.01390017427 -73.3329680616 -6.99959322935 4.16704547866 2.73971544804 31.5228427367 -30.0218471949 -5.34075799224 -18.5301939352 -6.45259240703 -17.6402305316 70.1876044771 5.90545412715 1.70082158388 -34.5088409324 -7.19717438034 
-23.5569550749 0.953474472715 5.37354732048 -0.288018378448 -0.52535643309 -94.2963485868 -8.08808291134 -7.60468566434 4.02902528478 4.52483896191 26.7444731292 17.8867815777 -6.53957571989 -42.3059697379 1.1087669128 0.758814273273 18.5503037197 1.10005212503 -4.95877155206 -1.5222677391 1.83690424519 77.1276094286 -23.5381757196 4.68097495191 9.47012473234 45.6376916188 -0.1428339698 -73.3202024381 -9.70410566896 0.461190967985 5.7602246686 32.2487552417 -39.8697095629 -5.05289668146 -24.1238456579 -7.7046728036 -12.2701445609 66.4410544721 -1.53999624214 2.22429998176 -36.5914339122 -7.20049214473 
-23.6086057653 0.953767546899 5.3843323937 -0.0765780332515 -1.51945348771 -93.7646251901 -9.78910310432 -2.08347727588 5.76814939559 4.02687590962 21.7995835098 15.9104868319 -4.39704484188 -43.796071128 1.61938993416 0.258174667283 18.480108158 0.422016364639 -3.67972599553 -1.81085838601 0.885504624062 74.2389653343 -23.8289898065 -3.9676005398 8.4408937716 43.7790332211 1.88959189756 -73.1516333693 -11.6463527755 -3.40683731319 8.54439504318 31.7675581694 -49.3721692645 -5.26980214516 -28.4668470549 -9.32779639664 -6.82764236323 59.5201603899 -7.50539520438 3.46580788582 -37.8454054174 -6.91569332002 
-23.6613860388 0.945942850421 5.39457566566 -0.225252488473 -2.5076219915 -93.3898868613 -11.3833828085 3.43325819244 7.98940972972 3.36320798576 17.9817109618 13.6368287015 -3.57360897493 -46.1419439947 1.73040462728 -0.161450957724 18.3963358879 -0.254462246026 -2.50118283066 -1.895495102 -0.0486569636413 71.4902786462 -23.1799391278 -11.78818763 7.73635719739 41.9648188643 3.54221699862 -72.8496502156 -13.5591703045 -7.16871725094 11.0628377619 30.8279427056 -58.1337481016 -5.3268547153 -31.5337437186 -11.1764775955 -3.21304969195 51.1728598467 -10.3498368757 5.21282086512 -38.8755926046 -6.34339475768 
-23.7168476538 0.930981410814 5.40337883131 -1.0593128214 -3.36636929613 -93.1939560547 -12.9004677147 9.10567437597 10.5496711354 2.9018231578 15.8563609978 11.377119525 -3.69613168303 -48.6815790828 1.34234284055 -0.79564969691 18.3144316744 -0.902951541884 -1.01624239554 -1.55956238623 -1.0803274992 68.8897114405 -22.523662109 -18.1125842165 7.71341715329 40.7873830439 3.82960595913 -72.6746880898 -15.769279501 -10.4683193135 13.0975545307 29.6448036772 -65.6707798884 -4.82913712293 -33.5993090368 -13.3768981687 -1.22403169113 44.0850564318 -11.2906732358 7.81828446271 -41.0142990036 -5.40663047103 
-23.7763696243 0.911856330039 5.41041793041 -2.35863614235 -3.92750391428 -92.7187183225 -14.1880719251 14.7319684265 13.0680865333 2.94420490848 15.5499091928 9.50934111723 -4.55537887213 -50.887306713 0.522164280149 -1.55781268387 17.8653006327 -1.5506771639 0.862789869482 -0.794322399055 -2.25810578961 66.0207861023 -22.7304904823 -23.2051425258 8.16228352516 40.545331385 2.92545326445 -72.8019003631 -17.9544516769 -12.8351301251 14.299915419 28.4501045537 -71.3125024825 -3.91718563288 -34.7341961939 -15.5772350721 0.0554671491616 39.8122779172 -11.7042710721 9.91045166021 -42.8539694754 -4.32458934139 
-23.8353303489 0.901272540993 5.41460451796 -2.43656603946 -2.73920190319 -91.2716607845 -12.503708856 15.2876350513 13.5079763291 4.17937866587 22.5970763972 8.59770552343 -4.65342922587 -46.8193963075 -0.268372993487 -0.918597797725 17.5055887201 -2.23438155441 2.52936034919 0.0309294444393 -3.0447459334 64.7829235982 -24.0965590522 -24.2891362358 8.33927250958 40.0014502516 2.05013079825 -73.4616010143 -18.1489225305 -13.4040857367 14.5947482185 28.5864265917 -71.2293380992 -1.99329679417 -34.6569535845 -16.2669783103 0.631141015573 39.2648416703 -12.877903331 8.78378548963 -44.7425099507 -2.76782188991 
-23.8941218795 0.907746486682 5.41634379124 -0.779738024187 -0.308047027735 -87.7558892112 -8.39635752311 9.91614035401 11.2105320649 7.06683046532 36.5272198887 7.64534236538 -3.86986095966 -39.6102682423 -1.08246983073 1.02842169005 17.4072664394 -2.98843102369 3.71553368914 0.738541151238 -3.27592222359 66.3531021261 -25.7717944272 -20.8857878686 8.10225896896 38.8504165274 2.36003526391 -74.4091258371 -15.1424525503 -13.1810621311 13.3504678979 30.0667181226 -64.1682953654 0.121207803299 -33.1921751208 -16.6422664694 0.60553810483 40.2228952297 -14.4782542195 3.82844226565 -47.1382910097 -1.36138476763 
-23.9522063856 0.909614546067 5.41951892191 1.13465290287 1.5158376496 -83.5288900395 -5.510168028 2.26984325625 8.99196538666 11.168415411 49.0402186557 4.83589260691 -2.5353504251 -38.3906320981 -1.4715515568 2.83654426513 17.1103103049 -3.33960541331 3.99539556774 1.03215588254 -3.02707431302 69.2631110522 -26.0707927884 -16.1217804414 7.85440933323 37.8448248513 4.1192589139 -74.9995000682 -9.54847895495 -13.0798301898 9.95258282833 30.8197430635 -53.4686776721 1.33606984541 -30.0747162742 -17.6712361754 0.481148674018 39.4877175731 -15.0208615227 -2.4797170402 -42.7268869757 -1.25660891871 
